<?xml version="1.0" encoding="iso-8859-1"?>
<!-- Generator: Adobe Illustrator 18.1.1, SVG Export Plug-In . SVG Version: 6.00 Build 0)  -->
<svg version="1.1" id="Capa_1" xmlns="http://www.w3.org/2000/svg" xmlns:xlink="http://www.w3.org/1999/xlink" x="0px" y="0px"
	 viewBox="0 0 316.684 316.684" style="enable-background:new 0 0 316.684 316.684;" xml:space="preserve">
<g>
	<g>
		<path style="fill:#010002;" d="M144.66,242.294c-9.921-10.525-14.941-21.142-17.329-27.739H14.204v102.129h233.281l-17.008-41.669
			C184.12,273.743,158.263,256.708,144.66,242.294z"/>
		<path style="fill:#010002;" d="M223.69,258.383l-17.889-43.828h-60.858C151.916,229.055,171.583,254.836,223.69,258.383z"/>
		<path style="fill:#010002;" d="M251.826,171.782V8.159c0-4.504-3.65-8.159-8.159-8.159c-4.509,0-8.159,3.655-8.159,8.159v163.623
			l0,0H6.046v26.456h210.72l48.348,118.447h45.525L251.761,172.44C251.777,172.217,251.826,172.005,251.826,171.782z"/>
		<polygon style="fill:#010002;" points="121.626,49.066 223.135,87.645 223.135,10.487 		"/>
	</g>
</g>
<g>
</g>
<g>
</g>
<g>
</g>
<g>
</g>
<g>
</g>
<g>
</g>
<g>
</g>
<g>
</g>
<g>
</g>
<g>
</g>
<g>
</g>
<g>
</g>
<g>
</g>
<g>
</g>
<g>
</g>
</svg>
